# xmcd
#
# Track frame offsets:
#	150
#	16374
#	37002
#	51077
#	67577
#	81889
#	95847
#	118249
#	139812
#	160207
#
# Disc length: 2160 seconds
#
# Revision: 1
# Processed by: cddbd v1.5.2PL0 Copyright (c) Steve Scherf et al.
# Submitted via: audiograbber 1.83.01
#
DISCID=84086e0a
DTITLE=Silvia Torres - Silvia Torres
DYEAR=1999
DGENRE=Brasil
TTITLE0=Take Saravá
TTITLE1=Rei do Gado
TTITLE2=Os varios caminhos do sol
TTITLE3=Dan mon île
TTITLE4=Pra todo efeito
TTITLE5=Brincadeira na fogueira
TTITLE6=Ao a da mina dove
TTITLE7=Pomba cor de cal
TTITLE8=As meninas de gare
TTITLE9=Féu
EXTD=
EXTT0=
EXTT1=
EXTT2=
EXTT3=
EXTT4=
EXTT5=
EXTT6=
EXTT7=
EXTT8=
EXTT9=
PLAYORDER=
